<?xml version="1.0"?>
<svg width="200" height="200" viewBox="0 0 200 200" xmlns="http://www.w3.org/2000/svg" xmlns:svg="http://www.w3.org/2000/svg" xmlns:xlink="http://www.w3.org/1999/xlink">
 <defs>
  <symbol height="23" id="svg_1" viewBox="0 0 22 22" width="22" xmlns="http://www.w3.org/2000/svg">
   <path clip-rule="evenodd" d="m13.02,15.22c0.08,0.27 0.11,0.55 0.09,0.83l0,0.44a0.66,0.66 0 0 1 -1.32,0l0,-0.49c0.03,-0.33 -0.07,-0.61 -0.27,-0.82a0.66,0.66 0 0 1 0.4,-1.11c1.54,-0.17 2.56,-0.71 2.56,-2.76c0,-0.52 -0.2,-1.01 -0.55,-1.38a0.66,0.66 0 0 1 -0.14,-0.69c0.11,-0.29 0.14,-0.59 0.09,-0.89c-0.22,0.07 -0.57,0.23 -1.06,0.56a0.66,0.66 0 0 1 -0.54,0.08a5.81,5.81 0 0 0 -3.07,0a0.66,0.66 0 0 1 -0.55,-0.08c-0.48,-0.33 -0.83,-0.48 -1.06,-0.56c-0.04,0.3 -0.01,0.61 0.1,0.89a0.66,0.66 0 0 1 -0.14,0.69c-0.36,0.38 -0.56,0.87 -0.55,1.39c0,2.03 1.02,2.57 2.56,2.77a0.66,0.66 0 0 1 0.4,1.11a0.99,0.99 0 0 0 -0.28,0.75l0,0.48c0,0.29 -0.19,0.55 -0.47,0.63a4.08,4.08 0 0 1 -1.16,0.19c-1.22,0 -1.8,-0.73 -2.18,-1.22c-0.16,-0.19 -0.32,-0.4 -0.43,-0.43a0.66,0.66 0 0 1 0.32,-1.28c0.55,0.14 0.87,0.54 1.15,0.9c0.38,0.48 0.64,0.81 1.45,0.69a2.17,2.17 0 0 1 0.09,-0.68c-1.18,-0.31 -2.77,-1.18 -2.77,-3.91a3.3,3.3 0 0 1 0.65,-2a3.13,3.13 0 0 1 0.17,-1.95a0.66,0.66 0 0 1 0.43,-0.37c0.19,-0.06 0.89,-0.17 2.21,0.65a7.11,7.11 0 0 1 3.19,0c1.31,-0.82 2.02,-0.71 2.21,-0.65a0.66,0.66 0 0 1 0.42,0.37c0.27,0.62 0.32,1.3 0.17,1.95c0.43,0.57 0.66,1.26 0.66,1.99c0,2.76 -1.59,3.61 -2.78,3.91zm1.25,-11.85l-7.42,0c-2.92,0 -4.87,2.05 -4.87,5.08l0,6.99c0,3.05 1.95,5.09 4.87,5.09l7.42,0c2.92,0 4.87,-2.04 4.87,-5.09l0,-6.99c0,-3.03 -1.95,-5.08 -4.87,-5.08z" fill="#D1D0D5" fill-rule="evenodd"/>
  </symbol>
 </defs>
 <g class="layer">
  <title>Layer 1</title>
  <use id="svg_2" transform="translate(0.104875 0.0954562) scale(1.00122 1) translate(-0.104875 -0.0954562) matrix(11.6053 0 0 11.6051 -22.6297 -44.5725)" xlink:href="#svg_1"/>
 </g>
</svg>